<mxfile host="app.diagrams.net" modified="2020-04-29T09:50:08.136Z" agent="5.0 (Windows NT 10.0; Win64; x64) AppleWebKit/537.36 (KHTML, like Gecko) Chrome/81.0.4044.122 Safari/537.36" etag="nQd1ya6Ehf4wI_4t_s9G" version="12.9.13" type="github">
  <diagram id="-0Z-iGZKRTbD8zX1hJ86" name="Page-1">
    <mxGraphModel dx="2702" dy="944" grid="1" gridSize="10" guides="1" tooltips="1" connect="1" arrows="1" fold="1" page="1" pageScale="1" pageWidth="827" pageHeight="1169" math="0" shadow="0">
      <root>
        <mxCell id="0" />
        <mxCell id="1" parent="0" />
        <mxCell id="g2eO_3g-GpQszgem91Em-1" value="" style="rounded=0;whiteSpace=wrap;html=1;" vertex="1" parent="1">
          <mxGeometry x="-640" y="120" width="200" height="720" as="geometry" />
        </mxCell>
        <mxCell id="g2eO_3g-GpQszgem91Em-2" value="" style="rounded=0;whiteSpace=wrap;html=1;" vertex="1" parent="1">
          <mxGeometry x="-320" y="120" width="200" height="720" as="geometry" />
        </mxCell>
        <mxCell id="g2eO_3g-GpQszgem91Em-3" value="" style="rounded=0;whiteSpace=wrap;html=1;" vertex="1" parent="1">
          <mxGeometry y="120" width="200" height="720" as="geometry" />
        </mxCell>
        <mxCell id="g2eO_3g-GpQszgem91Em-4" value="" style="rounded=0;whiteSpace=wrap;html=1;" vertex="1" parent="1">
          <mxGeometry x="320" y="120" width="200" height="720" as="geometry" />
        </mxCell>
        <mxCell id="g2eO_3g-GpQszgem91Em-7" value="" style="shape=mxgraph.bpmn.shape;html=1;verticalLabelPosition=bottom;labelBackgroundColor=#ffffff;verticalAlign=top;align=center;perimeter=ellipsePerimeter;outlineConnect=0;outline=end;symbol=terminate;" vertex="1" parent="1">
          <mxGeometry x="-555" y="210" width="40" height="40" as="geometry" />
        </mxCell>
        <mxCell id="g2eO_3g-GpQszgem91Em-8" value="" style="rounded=1;whiteSpace=wrap;html=1;" vertex="1" parent="1">
          <mxGeometry x="-600" y="290" width="120" height="60" as="geometry" />
        </mxCell>
        <mxCell id="g2eO_3g-GpQszgem91Em-9" value="" style="rounded=1;whiteSpace=wrap;html=1;" vertex="1" parent="1">
          <mxGeometry x="-600" y="380" width="120" height="60" as="geometry" />
        </mxCell>
        <mxCell id="g2eO_3g-GpQszgem91Em-10" value="" style="rounded=1;whiteSpace=wrap;html=1;" vertex="1" parent="1">
          <mxGeometry x="-600" y="470" width="120" height="60" as="geometry" />
        </mxCell>
        <mxCell id="g2eO_3g-GpQszgem91Em-11" value="" style="rounded=1;whiteSpace=wrap;html=1;" vertex="1" parent="1">
          <mxGeometry x="-600" y="560" width="120" height="60" as="geometry" />
        </mxCell>
        <mxCell id="g2eO_3g-GpQszgem91Em-12" value="" style="rounded=1;whiteSpace=wrap;html=1;" vertex="1" parent="1">
          <mxGeometry x="-600" y="650" width="120" height="60" as="geometry" />
        </mxCell>
        <mxCell id="g2eO_3g-GpQszgem91Em-13" value="" style="rounded=1;whiteSpace=wrap;html=1;" vertex="1" parent="1">
          <mxGeometry x="-600" y="740" width="120" height="60" as="geometry" />
        </mxCell>
        <mxCell id="g2eO_3g-GpQszgem91Em-15" value="" style="shape=mxgraph.bpmn.shape;html=1;verticalLabelPosition=bottom;labelBackgroundColor=#ffffff;verticalAlign=top;align=center;perimeter=ellipsePerimeter;outlineConnect=0;outline=end;symbol=terminate;" vertex="1" parent="1">
          <mxGeometry x="-240" y="210" width="40" height="40" as="geometry" />
        </mxCell>
        <mxCell id="g2eO_3g-GpQszgem91Em-16" value="" style="shape=mxgraph.bpmn.shape;html=1;verticalLabelPosition=bottom;labelBackgroundColor=#ffffff;verticalAlign=top;align=center;perimeter=ellipsePerimeter;outlineConnect=0;outline=end;symbol=terminate;" vertex="1" parent="1">
          <mxGeometry x="80" y="210" width="40" height="40" as="geometry" />
        </mxCell>
        <mxCell id="g2eO_3g-GpQszgem91Em-17" value="" style="shape=mxgraph.bpmn.shape;html=1;verticalLabelPosition=bottom;labelBackgroundColor=#ffffff;verticalAlign=top;align=center;perimeter=ellipsePerimeter;outlineConnect=0;outline=end;symbol=terminate;" vertex="1" parent="1">
          <mxGeometry x="400" y="210" width="40" height="40" as="geometry" />
        </mxCell>
        <mxCell id="g2eO_3g-GpQszgem91Em-18" value="" style="rounded=0;whiteSpace=wrap;html=1;" vertex="1" parent="1">
          <mxGeometry x="640" y="120" width="190" height="720" as="geometry" />
        </mxCell>
        <mxCell id="g2eO_3g-GpQszgem91Em-19" value="" style="shape=mxgraph.bpmn.shape;html=1;verticalLabelPosition=bottom;labelBackgroundColor=#ffffff;verticalAlign=top;align=center;perimeter=ellipsePerimeter;outlineConnect=0;outline=end;symbol=terminate;" vertex="1" parent="1">
          <mxGeometry x="715" y="210" width="40" height="40" as="geometry" />
        </mxCell>
      </root>
    </mxGraphModel>
  </diagram>
</mxfile>
